<mxfile host="app.diagrams.net" modified="2021-10-18T12:42:55.013Z" agent="5.0 (Macintosh; Intel Mac OS X 10_15_7) AppleWebKit/537.36 (KHTML, like Gecko) Chrome/86.0.4240.193 Safari/537.36" etag="IafHUBq07bfDu6k-RaxA" version="15.4.1" type="github">
  <diagram id="IVq6rn2adkB0p86krYGv" name="Page-1">
    <mxGraphModel dx="946" dy="536" grid="1" gridSize="10" guides="1" tooltips="1" connect="1" arrows="1" fold="1" page="1" pageScale="1" pageWidth="827" pageHeight="1169" math="0" shadow="0">
      <root>
        <mxCell id="0" />
        <mxCell id="1" parent="0" />
        <mxCell id="RxA2_NOf6JQGm6IwuMBK-10" style="rounded=0;orthogonalLoop=1;jettySize=auto;html=1;exitX=1;exitY=1;exitDx=0;exitDy=0;entryX=0;entryY=0;entryDx=0;entryDy=0;" edge="1" parent="1" source="RxA2_NOf6JQGm6IwuMBK-1" target="RxA2_NOf6JQGm6IwuMBK-7">
          <mxGeometry relative="1" as="geometry" />
        </mxCell>
        <mxCell id="RxA2_NOf6JQGm6IwuMBK-18" value="SYN=1 seq=x" style="edgeLabel;html=1;align=center;verticalAlign=middle;resizable=0;points=[];" vertex="1" connectable="0" parent="RxA2_NOf6JQGm6IwuMBK-10">
          <mxGeometry x="-0.0021" y="1" relative="1" as="geometry">
            <mxPoint as="offset" />
          </mxGeometry>
        </mxCell>
        <mxCell id="RxA2_NOf6JQGm6IwuMBK-1" value="CLOSED" style="rounded=0;whiteSpace=wrap;html=1;fillColor=#ffe6cc;strokeColor=#d79b00;" vertex="1" parent="1">
          <mxGeometry x="140" y="140" width="120" height="60" as="geometry" />
        </mxCell>
        <mxCell id="RxA2_NOf6JQGm6IwuMBK-2" value="SYN_SENT" style="rounded=0;whiteSpace=wrap;html=1;fillColor=#ffe6cc;strokeColor=#d79b00;" vertex="1" parent="1">
          <mxGeometry x="140" y="200" width="120" height="120" as="geometry" />
        </mxCell>
        <mxCell id="RxA2_NOf6JQGm6IwuMBK-12" style="edgeStyle=none;rounded=0;orthogonalLoop=1;jettySize=auto;html=1;exitX=1;exitY=0;exitDx=0;exitDy=0;entryX=0;entryY=0;entryDx=0;entryDy=0;" edge="1" parent="1" source="RxA2_NOf6JQGm6IwuMBK-4" target="RxA2_NOf6JQGm6IwuMBK-8">
          <mxGeometry relative="1" as="geometry" />
        </mxCell>
        <mxCell id="RxA2_NOf6JQGm6IwuMBK-19" value="ACK=1 seq=x+1 ack=y+1" style="edgeLabel;html=1;align=center;verticalAlign=middle;resizable=0;points=[];" vertex="1" connectable="0" parent="RxA2_NOf6JQGm6IwuMBK-12">
          <mxGeometry x="-0.0347" relative="1" as="geometry">
            <mxPoint as="offset" />
          </mxGeometry>
        </mxCell>
        <mxCell id="RxA2_NOf6JQGm6IwuMBK-13" value="数据传输" style="edgeStyle=none;rounded=0;orthogonalLoop=1;jettySize=auto;html=1;exitX=1;exitY=0.75;exitDx=0;exitDy=0;entryX=0;entryY=0.5;entryDx=0;entryDy=0;startArrow=classic;startFill=1;" edge="1" parent="1" source="RxA2_NOf6JQGm6IwuMBK-4" target="RxA2_NOf6JQGm6IwuMBK-8">
          <mxGeometry relative="1" as="geometry" />
        </mxCell>
        <mxCell id="RxA2_NOf6JQGm6IwuMBK-4" value="ESTABLISHED" style="rounded=0;whiteSpace=wrap;html=1;fillColor=#ffe6cc;strokeColor=#d79b00;" vertex="1" parent="1">
          <mxGeometry x="140" y="320" width="120" height="120" as="geometry" />
        </mxCell>
        <mxCell id="RxA2_NOf6JQGm6IwuMBK-5" value="&lt;span&gt;CLOSED&lt;/span&gt;" style="rounded=0;whiteSpace=wrap;html=1;fillColor=#dae8fc;strokeColor=#6c8ebf;" vertex="1" parent="1">
          <mxGeometry x="490" y="140" width="120" height="60" as="geometry" />
        </mxCell>
        <mxCell id="RxA2_NOf6JQGm6IwuMBK-6" value="LISTEN" style="rounded=0;whiteSpace=wrap;html=1;fillColor=#dae8fc;strokeColor=#6c8ebf;" vertex="1" parent="1">
          <mxGeometry x="490" y="200" width="120" height="60" as="geometry" />
        </mxCell>
        <mxCell id="RxA2_NOf6JQGm6IwuMBK-11" style="edgeStyle=none;rounded=0;orthogonalLoop=1;jettySize=auto;html=1;exitX=0;exitY=0;exitDx=0;exitDy=0;entryX=1;entryY=0;entryDx=0;entryDy=0;" edge="1" parent="1" source="RxA2_NOf6JQGm6IwuMBK-7" target="RxA2_NOf6JQGm6IwuMBK-4">
          <mxGeometry relative="1" as="geometry" />
        </mxCell>
        <mxCell id="RxA2_NOf6JQGm6IwuMBK-17" value="&lt;span style=&quot;font-size: 12px ; background-color: rgb(248 , 249 , 250)&quot;&gt;SYN=1 seq=y ACK=1 ack=x+1&lt;/span&gt;" style="edgeLabel;html=1;align=center;verticalAlign=middle;resizable=0;points=[];" vertex="1" connectable="0" parent="RxA2_NOf6JQGm6IwuMBK-11">
          <mxGeometry x="0.0308" y="2" relative="1" as="geometry">
            <mxPoint x="1" as="offset" />
          </mxGeometry>
        </mxCell>
        <mxCell id="RxA2_NOf6JQGm6IwuMBK-7" value="SYN_RCVD" style="rounded=0;whiteSpace=wrap;html=1;fillColor=#dae8fc;strokeColor=#6c8ebf;" vertex="1" parent="1">
          <mxGeometry x="490" y="260" width="120" height="120" as="geometry" />
        </mxCell>
        <mxCell id="RxA2_NOf6JQGm6IwuMBK-8" value="&lt;span&gt;ESTABLISHED&lt;/span&gt;" style="rounded=0;whiteSpace=wrap;html=1;fillColor=#dae8fc;strokeColor=#6c8ebf;" vertex="1" parent="1">
          <mxGeometry x="490" y="380" width="120" height="60" as="geometry" />
        </mxCell>
      </root>
    </mxGraphModel>
  </diagram>
</mxfile>
